<svg width="247" height="19" viewBox="0 0 247 19" fill="none" xmlns="http://www.w3.org/2000/svg">
<path d="M7.296 0.0720005H8.352C10.768 0.0720005 13.36 1.032 16.128 2.952C15.568 3.896 15.12 4.536 14.784 4.872H14.688C12.304 3.144 9.968 2.28 7.68 2.28C5.52 2.28 4.08 2.92 3.36 4.2C3.296 4.632 3.232 4.92 3.168 5.064C3.168 6.168 4.192 6.872 6.24 7.176C9.264 7.432 11.504 7.688 12.96 7.944C15.712 8.952 17.088 10.584 17.088 12.84C17.088 14.312 16.192 15.24 14.4 15.624C14.112 15.816 13.6 15.912 12.864 15.912H12.672V15.72C14.016 15.096 14.688 14.232 14.688 13.128V12.456C14.272 10.536 12.352 9.576 8.928 9.576C4.16 9.352 1.504 8.296 0.96 6.408C0.88 6.328 0.816 5.88 0.768 5.064C0.768 2.856 2.016 1.352 4.512 0.552C5.392 0.232 6.32 0.0720005 7.296 0.0720005ZM1.44 13.512C4.272 15.752 7.376 16.872 10.752 16.872C12.304 16.872 14.032 16.552 15.936 15.912V16.008C14.384 17.736 12.24 18.6 9.504 18.6H9.408C5.632 18.6 2.496 17.512 0 15.336L1.44 13.512Z" fill="white"/>
<path d="M28.8512 9.48H20.9552V18.144H18.7232V0.456H20.9552V7.44H28.8512V9.48ZM33.5793 0.456V18.144H31.3713V9.48H31.3473V7.44H31.3713V0.456H33.5793Z" fill="white"/>
<path d="M53.8496 18.12H51.4496L49.0496 13.368H39.2816L36.9536 18.12H34.6016L41.5856 3.84L42.7616 6.312L40.2896 11.304H48.0656L44.8736 4.896L42.7616 0.456H45.0896L53.8496 18.12Z" fill="white"/>
<path d="M69.2734 2.88C70.9694 4.512 71.8174 6.648 71.8174 9.288C71.8174 11.96 70.9854 14.088 69.3214 15.672C67.6574 17.272 65.4014 18.072 62.5534 18.072H54.9694V4.968H57.1534V16.056H62.5534C64.7134 16.056 66.4254 15.44 67.6894 14.208C68.9374 12.992 69.5614 11.344 69.5614 9.264C69.5614 7.216 68.9214 5.568 67.6414 4.32C66.3614 3.072 64.6654 2.448 62.5534 2.448H54.9694V0.408H62.5534C65.3374 0.408 67.5774 1.232 69.2734 2.88Z" fill="white"/>
<path d="M81.0048 16.152C82.0608 16.568 83.0687 16.8 84.0287 16.848C85.0047 16.896 85.8607 16.864 86.5967 16.752C87.3327 16.624 87.9247 16.48 88.3727 16.32C88.8207 16.144 89.0527 16.056 89.0687 16.056C87.4047 17.688 85.3248 18.504 82.8288 18.504C80.2368 18.504 78.1008 17.632 76.4208 15.888C74.7568 14.128 73.9248 11.92 73.9248 9.264C73.9248 6.608 74.7647 4.392 76.4447 2.616C78.0927 0.872 80.2208 0 82.8288 0C85.2768 0 87.3088 0.776 88.9248 2.328C88.7328 2.248 88.3648 2.128 87.8208 1.968C87.2928 1.792 86.6368 1.672 85.8528 1.608C85.0848 1.528 84.2207 1.552 83.2607 1.68C82.3167 1.792 81.3328 2.096 80.3088 2.592C79.4128 2.928 78.6128 3.456 77.9088 4.176C76.6288 5.536 75.9887 7.232 75.9887 9.264C75.9887 11.296 76.6367 12.992 77.9327 14.352C78.7967 15.264 79.8208 15.864 81.0048 16.152ZM91.0608 5.568C91.3328 6.144 91.5167 6.752 91.6127 7.392C91.7247 8.032 91.7807 8.656 91.7807 9.264C91.7807 9.856 91.7327 10.44 91.6367 11.016C91.5567 11.576 91.4047 12.112 91.1807 12.624C90.9727 13.12 90.6847 13.584 90.3167 14.016C89.9647 14.432 89.5167 14.792 88.9727 15.096C88.6687 15.272 88.3568 15.408 88.0368 15.504C87.7168 15.6 87.3968 15.68 87.0768 15.744C86.8688 15.776 86.6128 15.784 86.3088 15.768C86.0208 15.752 85.7887 15.776 85.6127 15.84C86.3647 15.52 87.0767 15.024 87.7487 14.352C89.0287 12.992 89.6687 11.296 89.6687 9.264C89.6687 7.232 89.0287 5.536 87.7487 4.176C87.0607 3.472 86.2768 2.952 85.3968 2.616C86.2768 2.552 87.1487 2.656 88.0127 2.928C88.8767 3.2 89.6127 3.664 90.2207 4.32C90.3967 4.512 90.5488 4.712 90.6768 4.92C90.8208 5.128 90.9488 5.344 91.0608 5.568Z" fill="white"/>
<path d="M116.025 0.480001L110.289 18.144H108.681L105.609 8.808H105.633L103.041 0.600001L103.089 0.480001H105.057L109.521 14.088L113.937 0.480001H116.025ZM102.729 7.944L99.4171 18.144H97.7851L92.0251 0.480001H94.1851L98.5771 14.112L101.697 4.68L102.729 7.944Z" fill="white"/>
<path d="M139.463 1.704C140.455 2.568 140.951 3.736 140.951 5.208C140.951 6.744 140.471 7.992 139.511 8.952C138.535 9.896 137.263 10.368 135.695 10.368H129.935V8.304H135.263C136.383 8.304 137.223 8.056 137.783 7.56C138.359 7.08 138.647 6.36 138.647 5.4C138.647 4.488 138.359 3.768 137.783 3.24C137.191 2.728 136.383 2.472 135.359 2.472H125.279V0.432H135.407C137.119 0.432 138.471 0.856 139.463 1.704ZM127.463 12.888V18.096H125.279V4.992H127.463V5.64H127.415L127.439 12.888H127.463Z" fill="white"/>
<path d="M145.057 10.368V18.096H142.873V4.992H145.057V8.304H152.857C153.977 8.304 154.817 8.056 155.377 7.56C155.953 7.08 156.241 6.36 156.241 5.4C156.241 4.488 155.953 3.768 155.377 3.24C154.785 2.728 153.985 2.472 152.977 2.472H142.873V0.432H153.001C154.729 0.432 156.089 0.864 157.081 1.728C158.057 2.624 158.545 3.832 158.545 5.352C158.545 6.632 158.161 7.728 157.393 8.64C156.609 9.568 155.593 10.136 154.345 10.344L148.537 10.368H145.057ZM158.761 18.096H156.337L153.097 12.456H155.545L158.761 18.096Z" fill="white"/>
<path d="M167.544 16.152C168.6 16.568 169.608 16.8 170.568 16.848C171.544 16.896 172.4 16.864 173.136 16.752C173.872 16.624 174.464 16.48 174.912 16.32C175.36 16.144 175.592 16.056 175.608 16.056C173.944 17.688 171.864 18.504 169.368 18.504C166.776 18.504 164.64 17.632 162.96 15.888C161.296 14.128 160.464 11.92 160.464 9.264C160.464 6.608 161.304 4.392 162.984 2.616C164.632 0.872 166.76 0 169.368 0C171.816 0 173.848 0.776 175.464 2.328C175.272 2.248 174.904 2.128 174.36 1.968C173.832 1.792 173.176 1.672 172.392 1.608C171.624 1.528 170.76 1.552 169.8 1.68C168.856 1.792 167.872 2.096 166.848 2.592C165.952 2.928 165.152 3.456 164.448 4.176C163.168 5.536 162.528 7.232 162.528 9.264C162.528 11.296 163.176 12.992 164.472 14.352C165.336 15.264 166.36 15.864 167.544 16.152ZM177.6 5.568C177.872 6.144 178.056 6.752 178.152 7.392C178.264 8.032 178.32 8.656 178.32 9.264C178.32 9.856 178.272 10.44 178.176 11.016C178.096 11.576 177.944 12.112 177.72 12.624C177.512 13.12 177.224 13.584 176.856 14.016C176.504 14.432 176.056 14.792 175.512 15.096C175.208 15.272 174.896 15.408 174.576 15.504C174.256 15.6 173.936 15.68 173.616 15.744C173.408 15.776 173.152 15.784 172.848 15.768C172.56 15.752 172.328 15.776 172.152 15.84C172.904 15.52 173.616 15.024 174.288 14.352C175.568 12.992 176.208 11.296 176.208 9.264C176.208 7.232 175.568 5.536 174.288 4.176C173.6 3.472 172.816 2.952 171.936 2.616C172.816 2.552 173.688 2.656 174.552 2.928C175.416 3.2 176.152 3.664 176.76 4.32C176.936 4.512 177.088 4.712 177.216 4.92C177.36 5.128 177.488 5.344 177.6 5.568Z" fill="white"/>
<path d="M194.068 13.224C193.764 13.88 193.348 14.4 192.82 14.784C192.292 15.168 191.604 15.456 190.756 15.648C190.772 15.632 190.788 15.624 190.804 15.624C190.82 15.608 190.836 15.584 190.852 15.552C191.54 14.928 191.884 13.712 191.884 11.904V0.456H194.068V13.224ZM184.18 16.224C184.596 16.352 185.092 16.496 185.668 16.656C186.26 16.8 186.916 16.92 187.636 17.016C188.356 17.112 189.124 17.168 189.94 17.184C190.756 17.2 191.612 17.144 192.508 17.016L192.364 17.16C191.228 18.104 189.324 18.576 186.652 18.576C184.236 18.576 182.444 18.144 181.276 17.28C180.108 16.416 179.524 15.104 179.524 13.344V10.512H181.708V13.272C181.708 14.408 182.132 15.232 182.98 15.744C183.284 15.936 183.684 16.096 184.18 16.224Z" fill="white"/>
<path d="M210.919 16.032V18.072H196.303V5.64H207.126V7.656H198.486V16.032H210.919ZM196.303 2.472V0.408H210.199V2.448H198.486V2.472H196.303Z" fill="white"/>
<path d="M218.077 15.888C217.277 15.888 216.493 15.768 215.725 15.528C214.973 15.272 214.309 14.864 213.733 14.304C213.013 13.648 212.517 12.88 212.245 12C211.973 11.12 211.837 10.216 211.837 9.288C211.837 8.696 211.885 8.12 211.981 7.56C212.077 7 212.237 6.472 212.461 5.976C212.701 5.464 213.005 5 213.373 4.584C213.741 4.152 214.189 3.776 214.717 3.456C215.293 3.12 215.925 2.888 216.613 2.76C216.837 2.712 217.109 2.696 217.429 2.712C217.749 2.728 218.013 2.696 218.221 2.616C217.805 2.792 217.421 3.008 217.069 3.264C216.717 3.504 216.381 3.792 216.061 4.128C214.749 5.52 214.093 7.24 214.093 9.288C214.093 11.336 214.749 13.056 216.061 14.448C216.365 14.768 216.685 15.048 217.021 15.288C217.357 15.512 217.709 15.712 218.077 15.888ZM214.645 2.448C216.357 0.832001 218.469 0.0240011 220.981 0.0240011C222.613 0.0240011 224.101 0.384001 225.445 1.104C226.789 1.792 227.885 2.808 228.733 4.152L226.885 5.472C226.325 4.4 225.525 3.568 224.485 2.976C224.373 2.912 224.261 2.856 224.149 2.808C224.037 2.76 223.925 2.712 223.813 2.664C223.813 2.648 223.805 2.632 223.789 2.616C223.197 2.344 222.613 2.136 222.037 1.992C221.477 1.832 220.925 1.728 220.381 1.68C219.853 1.616 219.341 1.592 218.845 1.608C218.365 1.624 217.917 1.656 217.501 1.704C216.509 1.848 215.589 2.088 214.741 2.424L214.645 2.448ZM229.117 13.752C228.301 15.288 227.189 16.472 225.781 17.304C224.357 18.136 222.757 18.552 220.981 18.552C218.405 18.552 216.253 17.704 214.525 16.008L214.741 16.08C215.525 16.4 216.373 16.632 217.285 16.776C218.053 16.904 218.941 16.944 219.949 16.896C220.973 16.848 222.045 16.6 223.165 16.152C223.709 15.976 224.213 15.744 224.677 15.456C225.765 14.752 226.661 13.744 227.365 12.432L229.117 13.752Z" fill="white"/>
<path d="M238.702 5.016V18.144H236.494V5.04L238.702 5.016ZM246.142 0.480001V2.496H238.702V2.52H236.494V2.496H229.054V0.480001H246.142Z" fill="white"/>
</svg>
